<svg xmlns="http://www.w3.org/2000/svg" viewBox="0 0 377.73 377.73"><defs><style>.cls-1{fill:#231f20;}.cls-2{fill:#fff;}</style></defs><g id="Layer_2" data-name="Layer 2"><g id="Layer_1-2" data-name="Layer 1"><circle class="cls-1" cx="188.86" cy="188.86" r="188.86"/><path class="cls-2" d="M282.82,196.06a14.64,14.64,0,0,0-12.06,6.63c-6.3,9.26-17,14.92-30.19,14.92-21.78,0-36.47-15.68-36.17-37.58.3-21.68,16.83-37.3,38.48-36.19,12.15.63,22,6.16,27.91,14.9a14.56,14.56,0,0,0,12,6.59c11.35,0,18.34-12.69,12-22.11-11.16-16.58-30.4-26.94-54.25-26.94-21.83,0-40,8.7-51.71,22.95a66.29,66.29,0,0,0-51.3-22.95c-38,.31-64.47,26-64.47,65.41v97.73a14.74,14.74,0,0,0,14.74,14.74h0a14.74,14.74,0,0,0,14.74-14.74V253.36a13.83,13.83,0,0,1,19.62-12.47,52.7,52.7,0,0,0,21.26,4.22c17.24,0,34.94-7.21,46.8-21.4,11.73,13.31,29.32,21.4,50.32,21.4,23.85,0,43.1-10.36,54.25-26.94C301.15,208.75,294.17,196.06,282.82,196.06ZM137.48,217.6c-21.35-.49-35.39-16.22-34.9-38,.46-19.85,17-36.22,36.89-35.79,21.31.46,35.59,16.11,35.19,37.8C174.28,201.59,157.47,218.05,137.48,217.6Z"/><path class="cls-2" d="M332,97.66h0a2.91,2.91,0,0,0-2.76,2l-7,20.68a.18.18,0,0,1-.34,0L315,100a3.5,3.5,0,0,0-3.31-2.38H286.38a2.79,2.79,0,0,0-2.77,2.17,2.73,2.73,0,0,0,2.67,3.29h9.05v21.82a2.72,2.72,0,0,0,2.73,2.72h.41a2.72,2.72,0,0,0,2.73-2.72V103.12h8.12a.73.73,0,0,1,.69.49l7.61,20.89a4.67,4.67,0,0,0,2.92,2.93,4.62,4.62,0,0,0,5.8-2.81l8.35-23.05A2.91,2.91,0,0,0,332,97.66Z"/></g></g></svg>